<svg xmlns="http://www.w3.org/2000/svg" viewBox="0 0 67.0743 67.0734"><g id="Layer_2" data-name="Layer 2"><g id="Layer_1-2" data-name="Layer 1"><path d="M54.72,67.0734H12.3535A12.3674,12.3674,0,0,1,0,54.7197V12.3538A12.3678,12.3678,0,0,1,12.3535,0H54.72A12.36849,12.36849,0,0,1,67.0743,12.3538V54.7197A12.36808,12.36808,0,0,1,54.72,67.0734ZM12.3535,1.469A10.89777,10.89777,0,0,0,1.4687,12.3538V54.7197A10.89764,10.89764,0,0,0,12.3535,65.6045H54.72A10.89719,10.89719,0,0,0,65.6045,54.7197V12.3538A10.89732,10.89732,0,0,0,54.72,1.469Z" fill="#216cad"/><path d="M33.5368,20.3575A13.1796,13.1796,0,1,0,46.716,33.537,13.17961,13.17961,0,0,0,33.5368,20.3575Z" fill="#216cad"/><path d="M33.5362,17.7727a1.46943,1.46943,0,0,1-1.4693-1.4695V8.7978a1.4694,1.4694,0,0,1,2.9388,0v7.5054A1.46909,1.46909,0,0,1,33.5362,17.7727Z" fill="#216cad"/><path d="M21.3501,22.8207a1.46306,1.46306,0,0,1-1.0386-.4303l-5.3071-5.3062a1.46947,1.46947,0,1,1,2.0781-2.0782l5.3071,5.3071a1.469,1.469,0,0,1-1.0395,2.5076Z" fill="#216cad"/><path d="M16.3038,35.0068H8.7987a1.4694,1.4694,0,1,1,0-2.9388h7.5051a1.4694,1.4694,0,1,1,0,2.9388Z" fill="#216cad"/><path d="M16.0433,52.4994a1.4694,1.4694,0,0,1-1.0389-2.5085l5.3071-5.3067a1.46962,1.46962,0,0,1,2.0781,2.0786l-5.3071,5.3063A1.46291,1.46291,0,0,1,16.0433,52.4994Z" fill="#216cad"/><path d="M33.5362,59.7449a1.46939,1.46939,0,0,1-1.4693-1.4693V50.7705a1.4694,1.4694,0,0,1,2.9388,0v7.5051A1.46905,1.46905,0,0,1,33.5362,59.7449Z" fill="#216cad"/><path d="M51.0291,52.4994a1.46262,1.46262,0,0,1-1.039-.4303l-5.3067-5.3063a1.46962,1.46962,0,1,1,2.0781-2.0786l5.3068,5.3067a1.4694,1.4694,0,0,1-1.0392,2.5085Z" fill="#216cad"/><path d="M58.2754,35.0068H50.77a1.4694,1.4694,0,1,1,0-2.9388h7.5054a1.4694,1.4694,0,0,1,0,2.9388Z" fill="#216cad"/><path d="M45.7226,22.8207a1.469,1.469,0,0,1-1.0392-2.5076l5.3067-5.3071a1.46951,1.46951,0,1,1,2.0782,2.0782l-5.3068,5.3062A1.46425,1.46425,0,0,1,45.7226,22.8207Z" fill="#216cad"/></g></g></svg>