<svg xmlns="http://www.w3.org/2000/svg" viewBox="0 0 67.0737 67.0734"><g id="Layer_2" data-name="Layer 2"><g id="Layer_1-2" data-name="Layer 1"><path d="M54.7202,67.0734H12.3538A12.36727,12.36727,0,0,1,0,54.7197V12.3538A12.36767,12.36767,0,0,1,12.3538,0H54.7202A12.36793,12.36793,0,0,1,67.0737,12.3538V54.7197A12.36752,12.36752,0,0,1,54.7202,67.0734ZM12.3538,1.469A10.8977,10.8977,0,0,0,1.469,12.3538V54.7197A10.89758,10.89758,0,0,0,12.3538,65.6045H54.7202A10.898,10.898,0,0,0,65.605,54.7197V12.3538A10.89809,10.89809,0,0,0,54.7202,1.469Z" fill="#216cad"/><path d="M33.537,57.1446A16.86068,16.86068,0,0,1,16.6952,40.3022c0-9.0277,15.5819-30.8956,16.2443-31.8226l.5975-.8348.5983.8348c.6627.927,16.2435,22.7949,16.2435,31.8226A16.86087,16.86087,0,0,1,33.537,57.1446Zm0-46.9606c-2.9022,4.1674-15.3723,22.517-15.3723,30.1182a15.37255,15.37255,0,1,0,30.7451,0C48.9098,32.701,36.4391,14.3514,33.537,10.184Z" fill="#216cad"/><path d="M39.6817,50.3721a9.129,9.129,0,0,1-1.8302,1.4335,4.04709,4.04709,0,0,1-4.1227.0322c-1.231-.7616-2.6098-2.9496-1.2443-4.186,1.6339-1.4803,4.0518-1.0375,5.7515-2.3368,2.3833-1.8216,6.5903-5.6505,6.5925-5.6525-.2832.2579-.4236,1.3932-.5489,1.7947-.2193.6982-.4447,1.3948-.691,2.0842a24.49339,24.49339,0,0,1-1.8138,4.0677A13.43826,13.43826,0,0,1,39.6817,50.3721Z" fill="#216cad"/></g></g></svg>