<svg xmlns="http://www.w3.org/2000/svg" viewBox="0 0 67.0746 67.0734"><g id="Layer_2" data-name="Layer 2"><g id="Layer_1-2" data-name="Layer 1"><path d="M54.7208,67.0734H12.3544A12.36829,12.36829,0,0,1,0,54.7197V12.3538A12.3687,12.3687,0,0,1,12.3544,0H54.7208A12.3678,12.3678,0,0,1,67.0746,12.3538V54.7197A12.3674,12.3674,0,0,1,54.7208,67.0734ZM12.3544,1.469A10.89745,10.89745,0,0,0,1.4699,12.3538V54.7197A10.89732,10.89732,0,0,0,12.3544,65.6045H54.7208A10.89777,10.89777,0,0,0,65.6056,54.7197V12.3538A10.8979,10.8979,0,0,0,54.7208,1.469Z" fill="#216cad"/><path d="M48.6853,17.8274a11.14075,11.14075,0,0,0-4.269-3.4044,19.05375,19.05375,0,0,0-8.6326-1.3152,11.0709,11.0709,0,0,1-3.0271,0A19.05415,19.05415,0,0,0,24.124,14.423a11.14,11.14,0,0,0-4.269,3.4044c-3.8025,5.4375-1.4934,12.8322-.6682,19.0254-1.1883,8.3247,4.0729,14.1843,8.7036,17.6381a10.622,10.622,0,0,0,12.7595,0c4.6315-3.4538,9.8922-9.3134,8.7036-17.6381C50.1789,30.6596,52.4883,23.2649,48.6853,17.8274ZM36.0425,39.4973c.4789,0,.8673.2707.8673.6042,0,.3337-.3884.6041-.8673.6041-.479,0-.8668-.2704-.8668-.6041C35.1757,39.768,35.5635,39.4973,36.0425,39.4973Zm-2.9394.6042c0,.3337-.3884.6041-.8665.6041-.4789,0-.8676-.2704-.8676-.6041,0-.3335.3887-.6042.8676-.6042C32.7147,39.4973,33.1031,39.768,33.1031,40.1015ZM22.6453,29.7622a4.16514,4.16514,0,0,1,.3926-2.3083c.8254-1.5247,2.3327-1.2052,3.7759-1.2068,1.618-.0025,3.6726.111,4.5949,1.6744a3.01417,3.01417,0,0,1-.2793,3.3858,2.93635,2.93635,0,0,1-1.8782,1.0425,19.15532,19.15532,0,0,1-2.0446.1583C24.9786,32.6583,22.858,32.4631,22.6453,29.7622ZM41.8617,45.9777c-.8301,3.3955-4.3355,4.3361-7.5911,4.1093-3.2556.2268-6.7613-.7133-7.592-4.1093a2.20548,2.20548,0,0,1-.0281-1.0925,1.88727,1.88727,0,0,1,1.4082-1.3235,18.89652,18.89652,0,0,1,5.0005-.1763c.4095.0108,2.0126.0114,2.4224,0a18.86462,18.86462,0,0,1,4.9997.1763,1.88981,1.88981,0,0,1,1.4093,1.3235A2.21146,2.21146,0,0,1,41.8617,45.9777Zm3.8098-16.2155c-.2127,2.7009-2.3333,2.8961-4.5613,2.7459a19.14966,19.14966,0,0,1-2.0443-.1583,2.93515,2.93515,0,0,1-1.8782-1.0425,3.0138,3.0138,0,0,1-.2804-3.3858c.9231-1.5634,2.9779-1.6769,4.5957-1.6744,1.4432.0016,2.9505-.3179,3.7759,1.2068A4.1625,4.1625,0,0,1,45.6715,29.7622Z" fill="#216cad"/></g></g></svg>