<svg xmlns="http://www.w3.org/2000/svg" viewBox="0 0 67.0743 67.0734"><g id="Layer_2" data-name="Layer 2"><g id="Layer_1-2" data-name="Layer 1"><path d="M54.7202,67.0734H12.3538A12.36746,12.36746,0,0,1,0,54.7197V12.3538A12.36787,12.36787,0,0,1,12.3538,0H54.7202A12.36844,12.36844,0,0,1,67.0743,12.3538V54.7197A12.368,12.368,0,0,1,54.7202,67.0734ZM12.3538,1.469A10.89738,10.89738,0,0,0,1.4696,12.3538V54.7197A10.89726,10.89726,0,0,0,12.3538,65.6045H54.7202A10.897,10.897,0,0,0,65.6048,54.7197V12.3538A10.89715,10.89715,0,0,0,54.7202,1.469Z" fill="#216cad"/><path d="M37.0569,26.8576H28.3666l-4.3437-7.5254,4.3437-7.5248h8.6903l4.3451,7.5248ZM29.2153,25.388h6.9934l3.4969-6.0558-3.4969-6.0558H29.2153l-3.4966,6.0558Z" fill="#216cad"/><path d="M20.0047,53.5197H11.3149L6.9707,45.9932l4.3442-7.5251h8.6898l4.3442,7.5251Zm-7.8416-1.4693h6.99342l3.49628-6.0572-3.49628-6.0553H12.1631L8.667,45.9932Z" fill="#216cad"/><path d="M54.6056,53.5197H45.9158l-4.3445-7.5265,4.3445-7.5251h8.6898l4.3442,7.5251ZM46.764,52.0504h6.9934l3.4963-6.0572-3.4963-6.0553H46.764l-3.4963,6.0553Z" fill="#216cad"/><polygon points="21.789 43.789 20.993 42.555 31.613 35.713 31.613 26.029 33.083 26.029 33.083 36.514 21.789 43.789" fill="#216cad"/><rect x="37.83779" y="32.79783" width="1.46979" height="13.67389" transform="translate(-15.26791 52.28224) rotate(-58.99749)" fill="#216cad"/></g></g></svg>